<?xml version="1.0" standalone="no"?>
<!DOCTYPE svg PUBLIC "-//W3C//DTD SVG 20010904//EN"
 "http://www.w3.org/TR/2001/REC-SVG-20010904/DTD/svg10.dtd">
<svg version="1.0" xmlns="http://www.w3.org/2000/svg"
 width="1068.000000pt" height="1068.000000pt" viewBox="0 0 1068.000000 1068.000000"
 preserveAspectRatio="xMidYMid meet">
<metadata>
Created by potrace 1.14, written by Peter Selinger 2001-2017
</metadata>
<g transform="translate(0.000000,1068.000000) scale(0.100000,-0.100000)"
fill="#000000" stroke="none">
<path d="M3190 10647 c0 -6 4 -28 10 -47 5 -19 12 -51 15 -70 3 -19 10 -60 15
-90 17 -98 19 -114 25 -181 4 -36 9 -79 11 -95 3 -16 7 -257 9 -535 2 -278 5
-550 6 -603 1 -53 0 -99 -2 -100 -2 -2 -56 39 -120 93 -64 53 -184 151 -266
219 -336 273 -486 468 -568 737 -29 95 -45 121 -67 112 -17 -6 -142 -255 -157
-312 -30 -116 -37 -205 -35 -465 2 -281 1 -265 49 -484 3 -10 12 -44 21 -75
16 -55 19 -67 29 -113 43 -201 42 -216 -55 -548 -28 -96 -53 -182 -55 -190 -2
-8 -26 -90 -54 -182 -45 -150 -66 -223 -77 -268 -4 -17 -23 -88 -29 -110 -16
-58 -65 -318 -71 -375 -3 -38 -8 -79 -10 -90 -5 -25 -5 -313 0 -340 2 -11 7
-47 11 -80 18 -157 81 -363 166 -544 68 -143 104 -250 128 -373 42 -217 53
-425 37 -698 -8 -128 -8 -137 -20 -250 -3 -36 -9 -87 -11 -115 -3 -27 -7 -57
-9 -65 -3 -8 -8 -46 -11 -84 -3 -38 -8 -72 -10 -75 -1 -3 -6 -35 -10 -71 -3
-36 -8 -72 -10 -80 -2 -8 -7 -35 -10 -60 -3 -25 -8 -52 -10 -60 -2 -8 -7 -39
-10 -69 -4 -30 -9 -63 -11 -75 -2 -12 -6 -39 -9 -61 -3 -22 -9 -65 -14 -95 -6
-30 -12 -74 -15 -97 -3 -24 -9 -62 -12 -85 -3 -24 -7 -48 -9 -55 -2 -7 0 -15
6 -18 28 -18 542 -28 679 -13 78 8 221 37 235 48 6 4 24 12 42 18 43 14 140
82 179 124 65 71 121 172 154 277 19 59 16 62 56 -53 41 -118 40 -117 143
-111 242 13 371 38 431 83 37 28 77 66 98 93 7 9 19 57 28 105 62 362 241 766
589 1334 42 69 74 116 71 105 -3 -11 -8 -36 -11 -55 -3 -19 -21 -102 -40 -185
-19 -82 -36 -161 -39 -175 -21 -110 -26 -132 -30 -138 -2 -4 -7 -25 -10 -47
-4 -22 -11 -56 -16 -75 -5 -19 -11 -46 -14 -60 -2 -14 -13 -65 -24 -115 -11
-49 -34 -155 -51 -235 -61 -282 -86 -348 -175 -467 -101 -134 -273 -263 -491
-367 -66 -32 -131 -62 -145 -68 -14 -6 -38 -16 -55 -23 -44 -20 -172 -67 -388
-144 -438 -156 -604 -238 -719 -355 -49 -51 -92 -122 -103 -174 l-7 -33 40 24
c41 26 183 80 243 92 94 19 359 17 359 -3 0 -4 -24 -8 -52 -8 -137 -3 -229
-27 -378 -97 -102 -49 -153 -85 -203 -146 -39 -48 -107 -176 -107 -202 0 -8
-4 -19 -8 -25 -8 -8 -37 -109 -47 -162 -2 -13 -7 -32 -10 -42 -3 -10 -8 -32
-10 -50 -5 -41 -10 -43 177 76 255 161 310 194 332 195 12 0 29 2 39 4 9 2 17
2 17 0 0 -5 -221 -165 -308 -224 -82 -55 -165 -140 -190 -193 -32 -70 -55
-195 -56 -308 -1 -118 15 -372 30 -465 13 -82 28 -168 39 -225 80 -419 81
-424 110 -640 2 -19 5 -83 5 -142 1 -76 5 -108 13 -109 7 0 19 -2 27 -3 8 -2
51 -6 95 -10 44 -3 121 -9 170 -13 183 -16 801 -7 903 11 9 2 46 7 82 11 75 8
99 11 155 20 22 3 58 8 80 11 22 4 49 8 60 10 10 2 37 6 60 9 22 4 54 8 70 11
17 3 41 7 55 9 145 21 359 63 520 101 139 34 508 135 560 154 14 5 86 27 160
50 74 23 144 45 155 50 11 4 88 31 170 60 83 29 220 80 305 113 85 34 157 62
160 62 6 2 9 3 165 70 372 159 741 368 956 541 246 198 555 506 762 759 323
394 532 747 656 1109 75 217 105 391 105 601 0 176 -21 314 -69 458 -13 39
-23 72 -22 73 1 2 23 -18 47 -43 25 -25 107 -92 183 -150 76 -58 165 -131 198
-162 33 -32 61 -56 63 -54 2 3 2 16 1 31 -2 15 -6 46 -9 69 -18 149 -93 330
-279 673 -233 429 -355 762 -392 1065 -3 22 -8 58 -10 80 -5 39 -4 37 39 -38
37 -63 102 -155 127 -177 3 -3 51 -60 108 -127 56 -67 107 -125 112 -129 15
-9 9 227 -8 340 -7 50 -15 108 -18 128 -17 115 -129 498 -178 610 -8 18 -31
74 -52 123 -169 408 -442 805 -702 1021 -32 26 -62 52 -68 57 -16 14 143 0
204 -19 74 -22 161 -65 222 -110 l51 -37 -7 44 c-8 54 -40 156 -72 229 -56
127 -203 308 -333 411 -252 200 -586 318 -1030 364 -30 3 -73 8 -95 10 -37 4
-173 13 -320 20 -33 2 -69 4 -80 5 -27 1 102 68 230 119 101 40 252 86 298 90
21 2 -57 91 -128 147 -156 123 -389 186 -685 187 -128 1 -276 -7 -342 -18 -98
-16 -392 -39 -498 -39 -165 0 -262 14 -430 60 -42 12 -201 98 -275 149 -237
163 -359 307 -529 624 -109 203 -202 329 -351 477 -140 139 -260 220 -390 262
-81 26 -155 36 -155 19z"/>
</g>
</svg>
