<svg xmlns="http://www.w3.org/2000/svg" viewBox="0 0 99.02 27.67"><defs><style>.cls-1{fill:#245ea9;}.cls-2{fill:#959799;}</style></defs><title>Asset 8</title><g id="Layer_2" data-name="Layer 2"><g id="Layer_1-2" data-name="Layer 1"><path class="cls-1" d="M6.79,16.84c-.48,2.42-5.1,2.22-5.32,3.81a2.32,2.32,0,0,1,1.8-.25A2.32,2.32,0,0,0,2,20.64c-.39.2-.79.37-1,1.73,1.07-.63,1.21-.85,1.5-.81-.91.72-1.27.76-1.39,1.36a3.61,3.61,0,0,0,0,1.26,30.68,30.68,0,0,1,.44,3.38,15.45,15.45,0,0,0,5-.24c1.44-.23,5.94-1.51,7.86-3.12s4.84-4.85,3.6-7.81c.4.48.93.68,1.32,1.16,0-1.41-1.62-2.73-1.81-5.16a3.21,3.21,0,0,0,.4.63l.3.35.33.4a8.17,8.17,0,0,0-2.71-6,1.71,1.71,0,0,1,1.27.46,3.07,3.07,0,0,0-2-2.32A8.93,8.93,0,0,0,12,5.44a4.47,4.47,0,0,1,1.46-.56,3,3,0,0,0-2.83-.83,4.94,4.94,0,0,1-3-.23A3.84,3.84,0,0,1,5.94,2c-.43-.85-1.39-2-2.35-2a22.26,22.26,0,0,1,.26,4.55C2.58,3.43,1.64,3,1.27,1.54a.08.08,0,0,0-.15,0,5.63,5.63,0,0,0-.36.8A5.57,5.57,0,0,0,.67,3.8c0,.91.46,1.6.31,2.21-.6,2.38-1.6,4.15-.45,6.44.8,1.61.19,4.26-.1,6.39a7.5,7.5,0,0,0,2.27-.07,1.6,1.6,0,0,0,1.15-1.26c.1.11.13.58.3.57a3.09,3.09,0,0,0,1.28-.21c.11-.08.3-.25.32-.38a11,11,0,0,1,1.77-4"/><path class="cls-2" d="M28.35,9.29h3.14c3.61,0,5.74,1.94,5.74,5.84s-2.13,5.93-5.63,5.93H28.35Zm3,10.08c2.37,0,3.73-1.35,3.73-4.24S33.72,11,31.35,11h-.91v8.39Z"/><path class="cls-2" d="M38.84,16.65c0-2.95,2-4.65,4.2-4.65s4.21,1.7,4.21,4.65a4.22,4.22,0,1,1-8.41,0Zm6.28,0c0-1.78-.78-3-2.08-3S41,14.87,41,16.65s.78,2.93,2.07,2.93S45.12,18.42,45.12,16.65Z"/><path class="cls-2" d="M48.35,20.05l1-1.32a3.88,3.88,0,0,0,2.44,1c1,0,1.42-.45,1.42-1.05s-1-1.08-1.91-1.44c-1.16-.43-2.48-1.1-2.48-2.58S50,12,52,12A4.76,4.76,0,0,1,55,13.06l-1,1.27a3.35,3.35,0,0,0-1.94-.77c-.89,0-1.31.43-1.31,1,0,.7.89,1,1.85,1.32,1.2.45,2.53,1,2.53,2.67s-1.2,2.75-3.43,2.75A5.54,5.54,0,0,1,48.35,20.05Z"/><path class="cls-2" d="M56.4,16.65c0-2.88,2-4.65,4.08-4.65,2.39,0,3.65,1.73,3.65,4.2a5.14,5.14,0,0,1-.09,1H58.43A2.51,2.51,0,0,0,61,19.67,3.82,3.82,0,0,0,63.09,19l.7,1.29a5.48,5.48,0,0,1-3,1A4.28,4.28,0,0,1,56.4,16.65Zm5.94-.85c0-1.36-.61-2.19-1.82-2.19a2.21,2.21,0,0,0-2.11,2.19Z"/><path class="cls-2" d="M65.23,12.22h2.08l1.07,4.58c.17.86.3,1.69.46,2.55h.07c.18-.86.35-1.71.57-2.55l1.16-4.58h1.88L73.7,16.8c.21.86.39,1.69.58,2.55h.07c.17-.86.3-1.69.48-2.55l1.06-4.58h1.93l-2.24,8.84H73.12l-1-4.13c-.18-.82-.34-1.64-.53-2.56h-.07c-.17.92-.33,1.75-.53,2.58l-1,4.11H67.56Z"/><path class="cls-2" d="M78.88,16.65c0-2.95,2-4.65,4.21-4.65s4.21,1.7,4.21,4.65a4.23,4.23,0,1,1-8.42,0Zm6.29,0c0-1.78-.78-3-2.08-3S81,14.87,81,16.65s.78,2.93,2.07,2.93S85.17,18.42,85.17,16.65Z"/><path class="cls-2" d="M89.24,18.79V8.34h2.08V18.89c0,.51.23.69.44.69a1.47,1.47,0,0,0,.33,0l.26,1.55a3,3,0,0,1-1.1.18C89.78,21.28,89.24,20.33,89.24,18.79Z"/><path class="cls-2" d="M93.28,12.31l1.3-.09h3.7v1.65h-5Zm1.19-1c0-1.83.85-3.17,2.93-3.17A4.4,4.4,0,0,1,99,8.44L98.63,10a2.62,2.62,0,0,0-1-.2c-.73,0-1.12.46-1.12,1.49v9.79H94.47Z"/></g></g></svg>